# xmcd
#
# Track frame offsets:
#	150
#	7154
#	24689
#	39488
#	54888
#	74837
#	85624
#	91311
#	114368
#	128635
#
# Disc length: 2160 seconds
#
# Revision: 1
# Processed by: cddbd v1.5PL3 Copyright (c) Steve Scherf et al.
# Submitted via: CDex 1.50Beta5
#
DISCID=7b086e0a
DTITLE=西村由紀江 - Vi・Ji・N
DYEAR=1900
DGENRE=
TTITLE0=凛
TTITLE1=森の聲〜GREEN FIELD〜
TTITLE2=水麗舞
TTITLE3=迷宮(ラビリンス)
TTITLE4=The sea dreams a dream〜海は夢をみている〜
TTITLE5=夢飛行
TTITLE6=星々が咲く夜
TTITLE7=更紗のベール
TTITLE8=食卓を包む、あふれる光と朝の匂い
TTITLE9=泪壷の詩
EXTD=
EXTT0=
EXTT1=
EXTT2=
EXTT3=
EXTT4=
EXTT5=
EXTT6=
EXTT7=
EXTT8=
EXTT9=
PLAYORDER=
